<svg version="1.1" id="Logo-Discord--Streamline-Carbon" xmlns="http://www.w3.org/2000/svg" xmlns:xlink="http://www.w3.org/1999/xlink" x="0" y="0" viewBox="0 0 24 24" xml:space="preserve" enable-background="new 0 0 32 32" height="24" width="24">
  <desc>
    Logo Discord Streamline Icon: https://streamlinehq.com
  </desc>
  <path d="M19.275 5.324999999999999C17.924999999999997 4.725 16.5 4.275 15 3.9749999999999996l-0.07500000000000001 0c-0.15000000000000002 0.30000000000000004 -0.375 0.75 -0.5249999999999999 1.125 -1.6500000000000001 -0.22499999999999998 -3.2249999999999996 -0.22499999999999998 -4.800000000000001 0 -0.15000000000000002 -0.375 -0.375 -0.75 -0.5249999999999999 -1.125l-0.07500000000000001 0c-1.5 0.22499999999999998 -2.925 0.675 -4.275 1.35C2.0250000000000004 9.375 1.275 13.350000000000001 1.6500000000000001 17.25l0 0.07500000000000001c1.7999999999999998 1.35 3.5250000000000004 2.0999999999999996 5.25 2.625l0.07500000000000001 0c0.375 -0.5249999999999999 0.75 -1.125 1.0499999999999998 -1.7249999999999999l0 -0.07500000000000001c-0.6000000000000001 -0.22499999999999998 -1.125 -0.44999999999999996 -1.6500000000000001 -0.75 -0.07500000000000001 0 -0.07500000000000001 -0.07500000000000001 0 -0.07500000000000001 0.07500000000000001 -0.07500000000000001 0.22499999999999998 -0.15000000000000002 0.30000000000000004 -0.22499999999999998l0.07500000000000001 0c3.4499999999999997 1.5750000000000002 7.125 1.5750000000000002 10.575 0l0.07500000000000001 0c0.07500000000000001 0.07500000000000001 0.22499999999999998 0.15000000000000002 0.30000000000000004 0.22499999999999998 0.07500000000000001 0 0 0.07500000000000001 0 0.07500000000000001 -0.5249999999999999 0.30000000000000004 -1.0499999999999998 0.6000000000000001 -1.6500000000000001 0.75 0 0 -0.07500000000000001 0.07500000000000001 0 0.07500000000000001 0.30000000000000004 0.6000000000000001 0.675 1.2000000000000002 1.0499999999999998 1.7249999999999999l0.07500000000000001 0c1.7249999999999999 -0.5249999999999999 3.4499999999999997 -1.35 5.25 -2.625l0 -0.07500000000000001c0.44999999999999996 -4.5 -0.75 -8.399999999999999 -3.1500000000000004 -11.925zM8.55 14.924999999999999c-1.0499999999999998 0 -1.875 -0.9750000000000001 -1.875 -2.0999999999999996s0.8250000000000001 -2.0999999999999996 1.875 -2.0999999999999996 1.875 0.9750000000000001 1.875 2.0999999999999996c0 1.125 -0.8250000000000001 2.0999999999999996 -1.875 2.0999999999999996zm6.9750000000000005 0c-1.0499999999999998 0 -1.875 -0.9750000000000001 -1.875 -2.0999999999999996s0.8250000000000001 -2.0999999999999996 1.875 -2.0999999999999996 1.875 0.9750000000000001 1.875 2.0999999999999996c0 1.125 -0.8250000000000001 2.0999999999999996 -1.875 2.0999999999999996z" fill="#000000" stroke-width="0.75"></path>
  <path id="_x3C_Transparent_Rectangle_x3E__363_" d="M0 0h24v24H0Z" fill="none" stroke-width="0.75"></path>
</svg>