<svg
  width="46.982mm"
  height="11mm"
  version="1.1"
  viewBox="0 0 46.982 11"
  xmlns="http://www.w3.org/2000/svg"
>
  <g transform="translate(-20 -60)">
    <path
      d="m21.5 60a1.4911 1.5 0 0 0-1.4909 1.5002h-0.0093v3.9998h0.0093a1.4911 1.5 0 0 0 1.4909 1.5002h6.4999v0.99994h-6.5045a1.4956 1.5 0 0 0-1.4955 1.5002 1.4956 1.5 0 0 0 1.4955 1.4996h8.0047a1.5 1.5 0 0 0 1.5002-1.4996v-4.0003a1.5 1.5 0 0 0-1.5002-1.4996 1.5 1.5 0 0 0-0.0047 5.17e-4v-5.17e-4h-6.4952v-1.0005h6.4999a1.4911 1.5 0 0 0 1.4909-1.4996 1.4911 1.5 0 0 0-1.4909-1.5002zm11.991 0a1.4911 1.5 0 0 0-1.4909 1.5002h-0.0088v8a1.4956 1.5 0 0 0 1.4955 1.4996h8.0042a1.5 1.5 0 0 0 1.5002-1.4996 1.5 1.5 0 0 0-1.5002-1.5002h-6.4999v-5.0002h6.4999a1.4911 1.5 0 0 0 1.4914-1.4996 1.4911 1.5 0 0 0-1.4914-1.5002zm12 0a1.4911 1.5 0 0 0-1.4914 1.5002h-0.0088v3.9998h0.0088a1.4911 1.5 0 0 0 1.4914 1.5002h6.4999v0.99994h-6.5045a1.4956 1.5 0 0 0-1.4955 1.5002 1.4956 1.5 0 0 0 1.4955 1.4996h8.0047a1.5 1.5 0 0 0 1.4996-1.4996v-4.0003a1.5 1.5 0 0 0-1.4996-1.4996 1.5 1.5 0 0 0-0.0047 5.17e-4v-5.17e-4h-6.4957v-1.0005h6.5004a1.4911 1.5 0 0 0 1.4909-1.4996 1.4911 1.5 0 0 0-1.4909-1.5002zm11.991 0a1.4911 1.5 0 0 0-1.4914 1.5002h-0.0088v8a1.4956 1.5 0 0 0 1.4955 1.4996h8.0047a1.5 1.5 0 0 0 1.4996-1.4996 1.5 1.5 0 0 0-1.4996-1.5002h-6.4999v-5.0002h6.4999a1.4911 1.5 0 0 0 1.4909-1.4996 1.4911 1.5 0 0 0-1.4909-1.5002z"
      fill="currentColor"
      strokeWidth=".22564"
    />
  </g>
</svg>